<?xml version="1.0" encoding="utf-8"?>
<!-- Generator: Adobe Illustrator 25.0.0, SVG Export Plug-In . SVG Version: 6.00 Build 0)  -->
<svg version="1.1" id="Layer_1" xmlns="http://www.w3.org/2000/svg" xmlns:xlink="http://www.w3.org/1999/xlink" x="0px" y="0px"
	 viewBox="0 0 200 64" style="enable-background:new 0 0 200 64;" xml:space="preserve">
<style type="text/css">
	.st0{fill-rule:evenodd;clip-rule:evenodd;fill:#0098DA;}
	.st1{fill-rule:evenodd;clip-rule:evenodd;fill:#FEFEFE;}
	.st2{fill:#201E1E;}
	.st3{fill-rule:evenodd;clip-rule:evenodd;fill:#201E1E;}
	.st4{fill-rule:evenodd;clip-rule:evenodd;fill:#373435;}
</style>
<g id="Layer_x0020_1">
	<g id="_2128696697104">
		<polygon class="st0" points="15.9,61.4 27.1,61.4 27.1,18.6 16,18.6 		"/>
		<polygon class="st1" points="17.6,21.1 25.4,21.1 25.4,29 17.6,29 		"/>
		<polygon class="st1" points="17.6,21.1 25.4,21.1 25.4,29 17.6,29 		"/>
		<polygon class="st1" points="17.6,31.3 25.4,31.3 25.4,59.1 17.6,59.1 		"/>
		<path class="st2" d="M21.5,0c2.6,0,5.1,1.1,6.8,2.9c1.7,1.8,2.8,4.2,2.8,6.9v6.9h-1.5V9.8c0-2.3-0.9-4.4-2.4-5.9
			c-1.5-1.5-3.5-2.4-5.8-2.4c-2.2,0-4.3,0.9-5.8,2.4c-1.5,1.5-2.4,3.6-2.4,5.9v6.9h-1.5V9.8c0-2.7,1.1-5.2,2.8-6.9
			C16.4,1.1,18.8,0,21.5,0z"/>
		<path class="st3" d="M0,18.6h10.8h4.7V26v35.4h-4.7V28.3c0-1.3-0.8-2.3-1.7-2.3H0L0,18.6L0,18.6z"/>
		<path class="st3" d="M43.1,18.6H27.6l0,0V26l0,0v8.6v7v19.9h4.7V41.5h8.9v-7h-8.9v-6.3C32.3,27,33,26,34,26h9.2l0,0L43.1,18.6
			L43.1,18.6L43.1,18.6z"/>
		<path class="st0" d="M1.5,26.6h7.7c0.7,0,1.2,0.6,1.2,1.3v33.6H3.8c-1.3,0-2.4-1.1-2.4-2.5L1.5,26.6L1.5,26.6z"/>
		<path class="st0" d="M41.7,26.6H34c-0.7,0-1.2,0.7-1.2,1.6v5.7h8.9V26.6z"/>
		<path class="st0" d="M32.8,61.4h6.1c1.3,0,2.4-1.5,2.4-3.2V42.2h-8.5V61.4L32.8,61.4z"/>
		<path class="st0" d="M71.7,31.6h-3v-9.5c6.3,0,5.2-1.1,5.2,8.1C73.9,31.2,73,31.6,71.7,31.6z M63.8,45.5h4.9V34.8h3l2.3,8
			c0.2,0.7,0.7,1.9,0.8,2.7h4.9c-0.6-0.9-3-10.3-3.6-11.1c4.1-1.6,3-6.4,3-10.9c0-6.1-6-4.8-15.3-4.8L63.8,45.5L63.8,45.5z"/>
		<path class="st0" d="M158.1,31.6h-3v-9.5c6.3,0,5.2-1.1,5.2,8.1C160.3,31.2,159.4,31.6,158.1,31.6z M150.2,45.5h4.9V34.8h3
			c0,1.2,2.8,9.3,3,10.7h4.9c-0.4-0.6-0.7-1.9-0.9-2.7l-2.6-8.4c4.1-1.6,3-6.4,3-10.9c0-6.1-6-4.8-15.3-4.8L150.2,45.5L150.2,45.5z"
			/>
		<path class="st0" d="M168.8,23.1c0,7.6-1,7.5,4.1,9.7c7,3,5.8,1.4,5.8,8.1c0,1.6-2.8,1.6-4.4,1c-0.4-1.3-0.3-1-0.3-2.6h-5.2
			c0,6.6,2.6,6.3,9.8,6.3c2.7,0,4.9-1.6,4.9-3.6v-7.7c0-0.9-0.7-1.5-1.5-1.9c-0.8-0.4-1.8-0.8-2.6-1.1c-1-0.4-1.6-0.7-2.6-1.1
			c-0.6-0.2-1-0.3-1.4-0.5c-0.8-0.4-0.4-0.4-1.4-0.6c0-2.2-0.3-4.8,0.3-6.7c5.1-0.9,4.4,0.6,4.4,3.6h4.9c0-6.7,0-7.3-9.6-7.3
			C170.7,18.7,168.8,20.6,168.8,23.1L168.8,23.1z"/>
		<path class="st0" d="M87,36v9.5h5.2c0-3-0.5-9.1,0.6-11.7c0.2-0.6,0.5-1.5,0.7-2.1L98,18.7H93c-0.6,1.8-1.1,3.8-1.6,5.5
			c-0.3,1-0.5,1.7-0.7,2.7c-0.3,1-0.7,1.9-0.7,2.9h-0.5c0-0.8-0.5-1.9-0.7-2.7l-2.6-8.4h-4.9C81.3,20.2,87,34.3,87,36L87,36z"/>
		<path class="st0" d="M125.3,45.5h4.9V33.4h6.6c0-4.3,1.4-3.4-6.6-3.4v-7.9h6.6c1.3,0,0.8-1.1,0.8-3.4h-12.3L125.3,45.5L125.3,45.5
			z"/>
		<polygon class="st0" points="46.8,22.1 51.4,22.1 51.4,45.5 56.4,45.5 56.4,22.1 61,22.1 61,18.7 46.8,18.7 		"/>
		<polygon class="st4" points="108.3,22.1 113,22.1 113,45.5 117.9,45.5 117.9,22.1 122.6,22.1 122.6,18.7 108.3,18.7 		"/>
		<polygon class="st0" points="140.6,45.5 145.6,45.5 145.6,18.7 140.6,18.7 		"/>
		<polygon class="st4" points="100.7,45.5 105.6,45.5 105.6,18.7 100.7,18.7 		"/>
		<path class="st0" d="M71.7,31.6h-3v-9.5c6.3,0,5.2-1.1,5.2,8.1C73.9,31.2,73,31.6,71.7,31.6z M63.8,45.5h4.9V34.8h3l2.3,8
			c0.2,0.7,0.7,1.9,0.8,2.7h4.9c-0.6-0.9-3-10.3-3.6-11.1c4.1-1.6,3-6.4,3-10.9c0-6.1-6-4.8-15.3-4.8L63.8,45.5L63.8,45.5z"/>
		<path class="st0" d="M158.1,31.6h-3v-9.5c6.3,0,5.2-1.1,5.2,8.1C160.3,31.2,159.4,31.6,158.1,31.6z M150.2,45.5h4.9V34.8h3
			c0,1.2,2.8,9.3,3,10.7h4.9c-0.4-0.6-0.7-1.9-0.9-2.7l-2.6-8.4c4.1-1.6,3-6.4,3-10.9c0-6.1-6-4.8-15.3-4.8L150.2,45.5L150.2,45.5z"
			/>
		<path class="st0" d="M168.8,23.1c0,7.6-1,7.5,4.1,9.7c7,3,5.8,1.4,5.8,8.1c0,1.6-2.8,1.6-4.4,1c-0.4-1.3-0.3-1-0.3-2.6h-5.2
			c0,6.6,2.6,6.3,9.8,6.3c2.7,0,4.9-1.6,4.9-3.6v-7.7c0-0.9-0.7-1.5-1.5-1.9c-0.8-0.4-1.8-0.8-2.6-1.1c-1-0.4-1.6-0.7-2.6-1.1
			c-0.6-0.2-1-0.3-1.4-0.5c-0.8-0.4-0.4-0.4-1.4-0.6c0-2.2-0.3-4.8,0.3-6.7c5.1-0.9,4.4,0.6,4.4,3.6h4.9c0-6.7,0-7.3-9.6-7.3
			C170.7,18.7,168.8,20.6,168.8,23.1L168.8,23.1z"/>
		<path class="st0" d="M87,36v9.5h5.2c0-3-0.5-9.1,0.6-11.7c0.2-0.6,0.5-1.5,0.7-2.1L98,18.7H93c-0.6,1.8-1.1,3.8-1.6,5.5
			c-0.3,1-0.5,1.7-0.7,2.7c-0.3,1-0.7,1.9-0.7,2.9h-0.5c0-0.8-0.5-1.9-0.7-2.7l-2.6-8.4h-4.9C81.3,20.2,87,34.3,87,36L87,36z"/>
		<path class="st0" d="M125.3,45.5h4.9V33.4h6.6c0-4.3,1.4-3.4-6.6-3.4v-7.9h6.6c1.3,0,0.8-1.1,0.8-3.4h-12.3L125.3,45.5L125.3,45.5
			z"/>
		<polygon class="st0" points="46.8,22.1 51.4,22.1 51.4,45.5 56.4,45.5 56.4,22.1 61,22.1 61,18.7 46.8,18.7 		"/>
		<polygon class="st3" points="108.3,22.1 113,22.1 113,45.5 117.9,45.5 117.9,22.1 122.6,22.1 122.6,18.7 108.3,18.7 		"/>
		<polygon class="st0" points="140.6,45.5 145.6,45.5 145.6,18.7 140.6,18.7 		"/>
		<polygon class="st3" points="100.7,45.5 105.6,45.5 105.6,18.7 100.7,18.7 		"/>
		<polygon class="st0" points="185.8,22.1 190.4,22.1 190.4,45.5 195.3,45.5 195.3,22.1 200,22.1 200,18.7 185.8,18.7 		"/>
		<polygon class="st0" points="185.8,22.1 190.4,22.1 190.4,45.5 195.3,45.5 195.3,22.1 200,22.1 200,18.7 185.8,18.7 		"/>
		<path class="st2" d="M57.5,51c0,0.2,0,0.3,0,0.4c0,0.1,0,0.2-0.1,0.3c0,0.1-0.1,0.1-0.1,0.2c0,0-0.1,0.1-0.1,0.1h-3.5V55h3.3
			c0.1,0,0.1,0,0.1,0c0,0,0.1,0.1,0.1,0.1c0,0.1,0.1,0.2,0.1,0.3c0,0.1,0,0.3,0,0.4c0,0.2,0,0.3,0,0.4c0,0.1,0,0.2-0.1,0.3
			c0,0.1-0.1,0.1-0.1,0.2c0,0-0.1,0-0.1,0h-3.3v4.2c0,0.1,0,0.1-0.1,0.2c0,0-0.1,0.1-0.2,0.1c-0.1,0-0.2,0.1-0.3,0.1
			c-0.1,0-0.3,0-0.5,0c-0.2,0-0.4,0-0.5,0c-0.1,0-0.3,0-0.3-0.1c-0.1,0-0.1-0.1-0.2-0.1c0,0-0.1-0.1-0.1-0.2V50.8
			c0-0.3,0.1-0.4,0.2-0.6c0.1-0.1,0.3-0.2,0.5-0.2h5c0,0,0.1,0,0.1,0c0,0,0.1,0.1,0.1,0.2c0,0.1,0.1,0.2,0.1,0.3
			C57.5,50.7,57.5,50.8,57.5,51L57.5,51z M61.4,61.1c0,0.1,0,0.1-0.1,0.2c0,0-0.1,0.1-0.2,0.1c-0.1,0-0.2,0.1-0.3,0.1
			c-0.1,0-0.3,0-0.5,0c-0.2,0-0.4,0-0.5,0s-0.3,0-0.3-0.1c-0.1,0-0.1-0.1-0.2-0.1c0,0-0.1-0.1-0.1-0.2V50.4c0-0.1,0-0.1,0.1-0.2
			c0,0,0.1-0.1,0.2-0.1c0.1,0,0.2-0.1,0.3-0.1c0.1,0,0.3,0,0.5,0c0.2,0,0.4,0,0.5,0c0.1,0,0.2,0,0.3,0.1c0.1,0,0.1,0.1,0.2,0.1
			c0,0,0.1,0.1,0.1,0.2V61.1z M71.6,61.1c0,0.1,0,0.1,0,0.2c0,0-0.1,0.1-0.2,0.1c-0.1,0-0.2,0-0.4,0.1c-0.2,0-0.4,0-0.6,0
			c-0.2,0-0.4,0-0.5,0c-0.1,0-0.2,0-0.3-0.1c-0.1,0-0.1-0.1-0.2-0.1c0-0.1-0.1-0.1-0.1-0.2l-1-2.5c-0.1-0.3-0.2-0.5-0.3-0.8
			c-0.1-0.2-0.2-0.4-0.4-0.6c-0.1-0.1-0.3-0.3-0.5-0.3c-0.2-0.1-0.4-0.1-0.6-0.1h-0.7v4.3c0,0.1,0,0.1-0.1,0.2c0,0-0.1,0.1-0.2,0.1
			c-0.1,0-0.2,0.1-0.3,0.1c-0.1,0-0.3,0-0.5,0c-0.2,0-0.4,0-0.5,0c-0.1,0-0.2,0-0.3-0.1c-0.1,0-0.1-0.1-0.2-0.1c0,0-0.1-0.1-0.1-0.2
			V50.8c0-0.3,0.1-0.4,0.2-0.6c0.1-0.1,0.3-0.2,0.5-0.2h2.8c0.3,0,0.5,0,0.7,0c0.2,0,0.3,0,0.5,0c0.4,0.1,0.8,0.2,1.2,0.3
			c0.3,0.2,0.6,0.4,0.9,0.6c0.2,0.3,0.4,0.6,0.5,0.9c0.1,0.3,0.2,0.7,0.2,1.2c0,0.4,0,0.7-0.1,1c-0.1,0.3-0.2,0.6-0.4,0.8
			c-0.2,0.2-0.4,0.5-0.6,0.6c-0.3,0.2-0.6,0.3-0.9,0.4c0.2,0.1,0.3,0.2,0.4,0.3c0.1,0.1,0.3,0.3,0.4,0.4c0.1,0.2,0.2,0.4,0.4,0.6
			c0.1,0.2,0.2,0.5,0.3,0.7l0.9,2.2c0.1,0.2,0.1,0.4,0.2,0.5C71.6,61,71.6,61.1,71.6,61.1L71.6,61.1z M68.8,53.4
			c0-0.4-0.1-0.7-0.2-0.9c-0.2-0.3-0.4-0.4-0.8-0.5c-0.1,0-0.2-0.1-0.4-0.1c-0.1,0-0.3,0-0.6,0h-1V55H67c0.3,0,0.6,0,0.8-0.1
			c0.2-0.1,0.4-0.2,0.6-0.3c0.2-0.1,0.3-0.3,0.3-0.5C68.8,53.9,68.8,53.7,68.8,53.4L68.8,53.4z M79.3,58c0,0.6-0.1,1.1-0.3,1.6
			c-0.2,0.4-0.5,0.8-0.8,1.1c-0.4,0.3-0.8,0.5-1.3,0.7s-1,0.2-1.5,0.2c-0.4,0-0.7,0-1-0.1c-0.3-0.1-0.6-0.1-0.8-0.2
			c-0.2-0.1-0.4-0.2-0.6-0.3c-0.2-0.1-0.3-0.2-0.4-0.3c-0.1-0.1-0.1-0.2-0.2-0.3c0-0.1,0-0.3,0-0.6c0-0.2,0-0.3,0-0.5
			c0-0.1,0-0.2,0.1-0.3c0-0.1,0.1-0.1,0.1-0.2c0,0,0.1,0,0.1,0c0.1,0,0.2,0,0.3,0.1c0.1,0.1,0.3,0.2,0.5,0.3s0.5,0.2,0.8,0.3
			c0.3,0.1,0.7,0.1,1.1,0.1c0.3,0,0.5,0,0.7-0.1c0.2-0.1,0.4-0.2,0.5-0.3c0.1-0.1,0.3-0.3,0.3-0.5c0.1-0.2,0.1-0.4,0.1-0.6
			c0-0.3-0.1-0.5-0.2-0.7c-0.1-0.2-0.3-0.3-0.5-0.5c-0.2-0.1-0.5-0.3-0.7-0.4c-0.3-0.1-0.5-0.3-0.8-0.4c-0.3-0.1-0.6-0.3-0.8-0.5
			c-0.3-0.2-0.5-0.4-0.7-0.6c-0.2-0.2-0.4-0.5-0.5-0.9c-0.1-0.3-0.2-0.7-0.2-1.2c0-0.5,0.1-1,0.3-1.4c0.2-0.4,0.4-0.8,0.8-1
			c0.3-0.3,0.7-0.5,1.1-0.6c0.4-0.1,0.9-0.2,1.4-0.2c0.2,0,0.5,0,0.8,0.1c0.3,0,0.5,0.1,0.7,0.2c0.2,0.1,0.4,0.1,0.6,0.2
			c0.2,0.1,0.3,0.2,0.3,0.2c0.1,0.1,0.1,0.1,0.1,0.1c0,0,0,0.1,0.1,0.2c0,0.1,0,0.1,0,0.3c0,0.1,0,0.2,0,0.4c0,0.2,0,0.3,0,0.4
			c0,0.1,0,0.2,0,0.3c0,0.1,0,0.1-0.1,0.2c0,0-0.1,0.1-0.1,0.1c-0.1,0-0.2,0-0.3-0.1c-0.1-0.1-0.3-0.2-0.5-0.3
			c-0.2-0.1-0.4-0.2-0.7-0.3c-0.3-0.1-0.5-0.1-0.8-0.1c-0.2,0-0.4,0-0.6,0.1c-0.2,0.1-0.3,0.1-0.4,0.3c-0.1,0.1-0.2,0.2-0.3,0.4
			c-0.1,0.2-0.1,0.3-0.1,0.5c0,0.3,0.1,0.5,0.2,0.7c0.1,0.2,0.3,0.4,0.5,0.5c0.2,0.1,0.5,0.3,0.7,0.4c0.3,0.1,0.6,0.3,0.8,0.4
			c0.3,0.1,0.6,0.3,0.8,0.5c0.3,0.2,0.5,0.4,0.7,0.6c0.2,0.2,0.4,0.5,0.5,0.9C79.3,57.2,79.3,57.6,79.3,58L79.3,58z M87.9,51
			c0,0.2,0,0.3,0,0.4c0,0.1,0,0.2-0.1,0.3c0,0.1-0.1,0.1-0.1,0.2c0,0-0.1,0.1-0.1,0.1h-2.7v9.2c0,0.1,0,0.1-0.1,0.2
			c0,0-0.1,0.1-0.2,0.1c-0.1,0-0.2,0.1-0.3,0.1c-0.1,0-0.3,0-0.5,0c-0.2,0-0.4,0-0.5,0c-0.1,0-0.3,0-0.3-0.1c-0.1,0-0.1-0.1-0.2-0.1
			c0,0-0.1-0.1-0.1-0.2v-9.2h-2.7c-0.1,0-0.1,0-0.1-0.1c0,0-0.1-0.1-0.1-0.2c0-0.1,0-0.2-0.1-0.3c0-0.1,0-0.3,0-0.4
			c0-0.2,0-0.3,0-0.4s0-0.2,0.1-0.3c0-0.1,0.1-0.1,0.1-0.2c0,0,0.1,0,0.1,0h7.5c0,0,0.1,0,0.1,0c0,0,0.1,0.1,0.1,0.2
			c0,0.1,0,0.2,0.1,0.3C87.9,50.7,87.9,50.8,87.9,51z M100,51c0,0.2,0,0.3,0,0.4c0,0.1,0,0.2-0.1,0.3c0,0.1-0.1,0.1-0.1,0.2
			c0,0-0.1,0.1-0.1,0.1H97v9.2c0,0.1,0,0.1-0.1,0.2c0,0-0.1,0.1-0.2,0.1c-0.1,0-0.2,0.1-0.3,0.1c-0.1,0-0.3,0-0.5,0
			c-0.2,0-0.4,0-0.5,0c-0.1,0-0.3,0-0.3-0.1c-0.1,0-0.1-0.1-0.2-0.1c0,0-0.1-0.1-0.1-0.2v-9.2h-2.7c-0.1,0-0.1,0-0.1-0.1
			c0,0-0.1-0.1-0.1-0.2c0-0.1,0-0.2-0.1-0.3c0-0.1,0-0.3,0-0.4c0-0.2,0-0.3,0-0.4s0-0.2,0.1-0.3c0-0.1,0.1-0.1,0.1-0.2
			c0,0,0.1,0,0.1,0h7.5c0,0,0.1,0,0.1,0c0,0,0.1,0.1,0.1,0.2c0,0.1,0,0.2,0.1,0.3C100,50.7,100,50.8,100,51L100,51z M109.2,61.1
			c0,0.1,0,0.1,0,0.2c0,0-0.1,0.1-0.2,0.1c-0.1,0-0.2,0-0.4,0.1c-0.2,0-0.4,0-0.6,0c-0.2,0-0.4,0-0.5,0c-0.1,0-0.2,0-0.3-0.1
			c-0.1,0-0.1-0.1-0.2-0.1c0-0.1-0.1-0.1-0.1-0.2l-1-2.5c-0.1-0.3-0.2-0.5-0.3-0.8c-0.1-0.2-0.2-0.4-0.4-0.6
			c-0.1-0.1-0.3-0.3-0.5-0.3c-0.2-0.1-0.4-0.1-0.6-0.1h-0.7v4.3c0,0.1,0,0.1-0.1,0.2c0,0-0.1,0.1-0.2,0.1c-0.1,0-0.2,0.1-0.3,0.1
			c-0.1,0-0.3,0-0.5,0c-0.2,0-0.4,0-0.5,0c-0.1,0-0.2,0-0.3-0.1c-0.1,0-0.1-0.1-0.2-0.1c0,0-0.1-0.1-0.1-0.2V50.8
			c0-0.3,0.1-0.4,0.2-0.6c0.1-0.1,0.3-0.2,0.5-0.2h2.8c0.3,0,0.5,0,0.7,0c0.2,0,0.3,0,0.5,0c0.4,0.1,0.8,0.2,1.2,0.3
			c0.3,0.2,0.6,0.4,0.9,0.6c0.2,0.3,0.4,0.6,0.5,0.9c0.1,0.3,0.2,0.7,0.2,1.2c0,0.4,0,0.7-0.1,1c-0.1,0.3-0.2,0.6-0.4,0.8
			c-0.2,0.2-0.4,0.5-0.6,0.6c-0.3,0.2-0.6,0.3-0.9,0.4c0.2,0.1,0.3,0.2,0.4,0.3c0.1,0.1,0.3,0.3,0.4,0.4c0.1,0.2,0.2,0.4,0.4,0.6
			c0.1,0.2,0.2,0.5,0.3,0.7l0.9,2.2c0.1,0.2,0.1,0.4,0.2,0.5C109.2,61,109.2,61.1,109.2,61.1L109.2,61.1z M106.4,53.4
			c0-0.4-0.1-0.7-0.2-0.9c-0.2-0.3-0.4-0.4-0.8-0.5c-0.1,0-0.2-0.1-0.4-0.1c-0.1,0-0.3,0-0.6,0h-1V55h1.1c0.3,0,0.6,0,0.8-0.1
			c0.2-0.1,0.4-0.2,0.6-0.3c0.2-0.1,0.3-0.3,0.3-0.5C106.3,53.9,106.4,53.7,106.4,53.4L106.4,53.4z M114.7,57.1v4
			c0,0.1,0,0.1-0.1,0.2c0,0-0.1,0.1-0.2,0.1c-0.1,0-0.2,0.1-0.3,0.1c-0.1,0-0.3,0-0.5,0c-0.2,0-0.4,0-0.5,0c-0.1,0-0.2,0-0.3-0.1
			c-0.1,0-0.1-0.1-0.2-0.1c0,0-0.1-0.1-0.1-0.2v-4l-2.9-6.2c-0.1-0.2-0.2-0.4-0.2-0.5c0-0.1,0-0.2,0.1-0.3c0.1-0.1,0.2-0.1,0.3-0.1
			c0.2,0,0.4,0,0.7,0c0.3,0,0.5,0,0.6,0c0.2,0,0.3,0,0.4,0.1c0.1,0,0.2,0.1,0.2,0.1c0,0.1,0.1,0.1,0.1,0.2l1.2,2.8
			c0.1,0.3,0.2,0.6,0.3,0.9c0.1,0.3,0.2,0.6,0.3,0.9h0c0.1-0.3,0.2-0.6,0.3-0.9c0.1-0.3,0.2-0.6,0.3-0.9l1.2-2.8
			c0-0.1,0.1-0.2,0.1-0.2c0-0.1,0.1-0.1,0.2-0.1c0.1,0,0.2-0.1,0.3-0.1c0.1,0,0.3,0,0.6,0c0.3,0,0.6,0,0.7,0c0.2,0,0.3,0.1,0.4,0.1
			c0.1,0.1,0.1,0.2,0,0.3c0,0.1-0.1,0.3-0.2,0.5L114.7,57.1L114.7,57.1z M119.5,59.8c0,0.2,0,0.4,0,0.6c0,0.2-0.1,0.4-0.1,0.5
			c-0.1,0.2-0.1,0.3-0.2,0.5c-0.1,0.2-0.2,0.3-0.3,0.5l-1.1,1.7c0,0.1-0.1,0.1-0.1,0.1c0,0-0.1,0.1-0.2,0.1c-0.1,0-0.1,0-0.2,0.1
			c-0.1,0-0.2,0-0.4,0c-0.2,0-0.3,0-0.4,0c-0.1,0-0.2,0-0.2-0.1c0,0-0.1-0.1-0.1-0.1c0,0,0-0.1,0-0.2l1-2.4v-1.4
			c0-0.2,0-0.4,0.1-0.5c0-0.1,0.1-0.2,0.2-0.3c0.1-0.1,0.2-0.1,0.4-0.1c0.1,0,0.3,0,0.5,0c0.2,0,0.4,0,0.5,0c0.1,0,0.2,0.1,0.3,0.1
			c0.1,0.1,0.2,0.2,0.2,0.3C119.5,59.5,119.5,59.6,119.5,59.8L119.5,59.8z M132.5,51c0,0.2,0,0.3,0,0.4c0,0.1,0,0.2-0.1,0.3
			c0,0.1-0.1,0.1-0.1,0.2c0,0-0.1,0.1-0.1,0.1h-2.7v9.2c0,0.1,0,0.1-0.1,0.2c0,0-0.1,0.1-0.2,0.1c-0.1,0-0.2,0.1-0.3,0.1
			c-0.1,0-0.3,0-0.5,0c-0.2,0-0.4,0-0.5,0c-0.1,0-0.3,0-0.3-0.1c-0.1,0-0.1-0.1-0.2-0.1c0,0-0.1-0.1-0.1-0.2v-9.2h-2.7
			c-0.1,0-0.1,0-0.1-0.1c0,0-0.1-0.1-0.1-0.2c0-0.1,0-0.2-0.1-0.3c0-0.1,0-0.3,0-0.4c0-0.2,0-0.3,0-0.4s0-0.2,0.1-0.3
			c0-0.1,0.1-0.1,0.1-0.2c0,0,0.1,0,0.1,0h7.5c0,0,0.1,0,0.1,0c0,0,0.1,0.1,0.1,0.2c0,0.1,0,0.2,0.1,0.3
			C132.4,50.7,132.5,50.8,132.5,51L132.5,51z M142,61.1c0,0.1,0,0.1-0.1,0.2c0,0-0.1,0.1-0.2,0.1c-0.1,0-0.2,0.1-0.3,0.1
			c-0.1,0-0.3,0-0.5,0c-0.2,0-0.4,0-0.5,0c-0.1,0-0.2,0-0.3-0.1c-0.1,0-0.1-0.1-0.2-0.1c0,0-0.1-0.1-0.1-0.2v-4.6h-4v4.6
			c0,0.1,0,0.1-0.1,0.2c0,0-0.1,0.1-0.2,0.1c-0.1,0-0.2,0.1-0.3,0.1c-0.1,0-0.3,0-0.5,0c-0.2,0-0.4,0-0.5,0c-0.1,0-0.2,0-0.3-0.1
			c-0.1,0-0.1-0.1-0.2-0.1c0,0-0.1-0.1-0.1-0.2V50.4c0-0.1,0-0.1,0.1-0.2c0,0,0.1-0.1,0.2-0.1c0.1,0,0.2-0.1,0.3-0.1
			c0.1,0,0.3,0,0.5,0c0.2,0,0.4,0,0.5,0c0.1,0,0.2,0,0.3,0.1c0.1,0,0.1,0.1,0.2,0.1c0,0,0.1,0.1,0.1,0.2v4.2h4v-4.2
			c0-0.1,0-0.1,0.1-0.2c0,0,0.1-0.1,0.2-0.1c0.1,0,0.2-0.1,0.3-0.1c0.1,0,0.3,0,0.5,0c0.2,0,0.4,0,0.5,0c0.1,0,0.2,0,0.3,0.1
			c0.1,0,0.1,0.1,0.2,0.1c0,0,0.1,0.1,0.1,0.2V61.1z M150.6,60.5c0,0.2,0,0.3,0,0.4c0,0.1,0,0.2-0.1,0.3c0,0.1-0.1,0.1-0.1,0.2
			c0,0-0.1,0-0.1,0H145c-0.2,0-0.3-0.1-0.5-0.2c-0.1-0.1-0.2-0.3-0.2-0.6v-9.9c0-0.3,0.1-0.4,0.2-0.6c0.1-0.1,0.3-0.2,0.5-0.2h5.3
			c0,0,0.1,0,0.1,0c0,0,0.1,0.1,0.1,0.2c0,0.1,0,0.2,0.1,0.3c0,0.1,0,0.3,0,0.4c0,0.2,0,0.3,0,0.4c0,0.1,0,0.2-0.1,0.3
			c0,0.1-0.1,0.1-0.1,0.2c0,0-0.1,0-0.1,0h-3.8v2.8h3.2c0.1,0,0.1,0,0.1,0c0,0,0.1,0.1,0.1,0.1c0,0.1,0,0.2,0.1,0.3
			c0,0.1,0,0.3,0,0.4c0,0.2,0,0.3,0,0.4c0,0.1,0,0.2-0.1,0.3c0,0.1-0.1,0.1-0.1,0.1c0,0-0.1,0-0.1,0h-3.2v3.2h3.8c0.1,0,0.1,0,0.1,0
			c0,0,0.1,0.1,0.1,0.2c0,0.1,0,0.2,0.1,0.3C150.6,60.2,150.6,60.3,150.6,60.5L150.6,60.5z M161.3,60.6c0,0.1,0,0.3-0.1,0.4
			c0,0.1-0.1,0.2-0.2,0.3c-0.1,0.1-0.2,0.1-0.3,0.2c-0.1,0-0.2,0-0.3,0h-0.9c-0.2,0-0.4,0-0.5-0.1c-0.1,0-0.3-0.1-0.4-0.2
			c-0.1-0.1-0.2-0.3-0.3-0.4c-0.1-0.2-0.2-0.4-0.4-0.7l-2.6-5.3c-0.2-0.3-0.3-0.7-0.5-1c-0.2-0.4-0.3-0.7-0.4-1.1h0
			c0,0.4,0,0.8,0.1,1.3c0,0.4,0,0.9,0,1.3v6c0,0.1,0,0.1,0,0.2c0,0-0.1,0.1-0.2,0.1c-0.1,0-0.2,0.1-0.3,0.1s-0.3,0-0.5,0
			c-0.2,0-0.4,0-0.5,0c-0.1,0-0.2,0-0.3-0.1c-0.1,0-0.1-0.1-0.1-0.1c0,0,0-0.1,0-0.2V50.9c0-0.3,0.1-0.5,0.2-0.6
			c0.1-0.1,0.3-0.2,0.6-0.2h1.2c0.2,0,0.4,0,0.5,0.1c0.1,0,0.3,0.1,0.4,0.2c0.1,0.1,0.2,0.2,0.3,0.4c0.1,0.2,0.2,0.3,0.3,0.6
			l2.1,4.2c0.1,0.3,0.2,0.5,0.4,0.7c0.1,0.2,0.2,0.5,0.3,0.7c0.1,0.2,0.2,0.5,0.3,0.7c0.1,0.2,0.2,0.5,0.3,0.7h0c0-0.4,0-0.8,0-1.3
			c0-0.4,0-0.9,0-1.3v-5.3c0-0.1,0-0.1,0.1-0.2c0,0,0.1-0.1,0.2-0.1c0.1,0,0.2-0.1,0.3-0.1c0.1,0,0.3,0,0.5,0c0.2,0,0.3,0,0.5,0
			c0.1,0,0.2,0,0.3,0.1c0.1,0,0.1,0.1,0.1,0.1c0,0,0,0.1,0,0.2L161.3,60.6L161.3,60.6z M175.1,58c0,0.4-0.1,0.8-0.2,1.1
			c-0.1,0.3-0.2,0.6-0.4,0.9c-0.2,0.3-0.4,0.5-0.7,0.7c-0.3,0.2-0.5,0.3-0.8,0.4c-0.3,0.1-0.6,0.2-1,0.3c-0.3,0.1-0.7,0.1-1.2,0.1
			h-2.8c-0.2,0-0.3-0.1-0.5-0.2c-0.1-0.1-0.2-0.3-0.2-0.6v-9.9c0-0.3,0.1-0.4,0.2-0.6c0.1-0.1,0.3-0.2,0.5-0.2h2.7
			c0.7,0,1.2,0.1,1.7,0.2c0.5,0.1,0.8,0.3,1.1,0.5c0.3,0.2,0.5,0.5,0.7,0.9c0.2,0.4,0.2,0.8,0.2,1.3c0,0.3,0,0.5-0.1,0.8
			c-0.1,0.2-0.2,0.5-0.3,0.7c-0.1,0.2-0.3,0.4-0.5,0.5c-0.2,0.2-0.4,0.3-0.6,0.4c0.3,0.1,0.6,0.2,0.8,0.3c0.3,0.1,0.5,0.3,0.7,0.6
			c0.2,0.2,0.3,0.5,0.4,0.8C175.1,57.3,175.1,57.6,175.1,58L175.1,58z M172.3,53.2c0-0.2,0-0.4-0.1-0.6c-0.1-0.2-0.2-0.3-0.3-0.5
			c-0.1-0.1-0.3-0.2-0.5-0.3c-0.2-0.1-0.5-0.1-0.8-0.1h-1.1v3h1.2c0.3,0,0.6,0,0.7-0.1c0.2-0.1,0.3-0.2,0.5-0.3
			c0.1-0.1,0.2-0.3,0.3-0.5C172.3,53.6,172.3,53.4,172.3,53.2L172.3,53.2z M172.9,58.1c0-0.3,0-0.5-0.1-0.7
			c-0.1-0.2-0.2-0.4-0.4-0.5c-0.2-0.1-0.4-0.2-0.6-0.3c-0.2-0.1-0.6-0.1-1-0.1h-1.3v3.2h1.6c0.3,0,0.6,0,0.8-0.1
			c0.2-0.1,0.4-0.2,0.5-0.3c0.1-0.1,0.3-0.3,0.4-0.5C172.9,58.6,172.9,58.3,172.9,58.1L172.9,58.1z M185.5,57.2
			c0,0.7-0.1,1.3-0.3,1.9c-0.2,0.6-0.5,1-0.8,1.4c-0.4,0.4-0.8,0.7-1.4,0.9c-0.5,0.2-1.2,0.3-1.9,0.3c-0.7,0-1.3-0.1-1.8-0.3
			c-0.5-0.2-1-0.4-1.3-0.8c-0.4-0.4-0.6-0.8-0.8-1.4c-0.2-0.5-0.3-1.2-0.3-1.9v-6.9c0-0.1,0-0.1,0.1-0.2c0,0,0.1-0.1,0.2-0.1
			c0.1,0,0.2-0.1,0.3-0.1c0.1,0,0.3,0,0.5,0c0.2,0,0.4,0,0.5,0c0.1,0,0.2,0,0.3,0.1c0.1,0,0.1,0.1,0.2,0.1c0,0,0.1,0.1,0.1,0.2v6.7
			c0,0.5,0.1,0.8,0.2,1.2c0.1,0.3,0.3,0.6,0.4,0.8c0.2,0.2,0.4,0.4,0.7,0.5c0.3,0.1,0.6,0.2,0.9,0.2c0.3,0,0.6-0.1,0.9-0.2
			c0.3-0.1,0.5-0.3,0.7-0.5c0.2-0.2,0.3-0.5,0.4-0.8c0.1-0.3,0.2-0.7,0.2-1.1v-6.9c0-0.1,0-0.1,0.1-0.2c0,0,0.1-0.1,0.2-0.1
			c0.1,0,0.2-0.1,0.3-0.1c0.1,0,0.3,0,0.5,0c0.2,0,0.4,0,0.5,0c0.1,0,0.2,0,0.3,0.1c0.1,0,0.1,0.1,0.2,0.1c0,0,0.1,0.1,0.1,0.2
			L185.5,57.2L185.5,57.2z"/>
		<path class="st2" d="M192.2,57.1v4c0,0.1,0,0.1-0.1,0.2c0,0-0.1,0.1-0.2,0.1c-0.1,0-0.2,0.1-0.3,0.1c-0.1,0-0.3,0-0.5,0
			c-0.2,0-0.4,0-0.5,0c-0.1,0-0.2,0-0.3-0.1c-0.1,0-0.1-0.1-0.2-0.1c0,0-0.1-0.1-0.1-0.2v-4l-2.9-6.2c-0.1-0.2-0.2-0.4-0.2-0.5
			c0-0.1,0-0.2,0.1-0.3c0.1-0.1,0.2-0.1,0.3-0.1c0.2,0,0.4,0,0.7,0c0.3,0,0.5,0,0.6,0s0.3,0,0.4,0.1c0.1,0,0.2,0.1,0.2,0.1
			c0,0.1,0.1,0.1,0.1,0.2l1.2,2.8c0.1,0.3,0.2,0.6,0.3,0.9c0.1,0.3,0.2,0.6,0.3,0.9h0c0.1-0.3,0.2-0.6,0.3-0.9
			c0.1-0.3,0.2-0.6,0.3-0.9l1.2-2.8c0-0.1,0.1-0.2,0.1-0.2c0-0.1,0.1-0.1,0.2-0.1c0.1,0,0.2-0.1,0.3-0.1c0.1,0,0.3,0,0.6,0
			c0.3,0,0.6,0,0.7,0c0.2,0,0.3,0.1,0.4,0.1c0.1,0.1,0.1,0.2,0,0.3c0,0.1-0.1,0.3-0.2,0.5L192.2,57.1L192.2,57.1z"/>
	</g>
</g>
</svg>
